HIERARCHY
ROOT pelvis
{
  OFFSET 0 100 0
  CHANNELS 6 Xposition Yposition Zposition Zrotation Xrotation Yrotation
  JOINT pelvis_right_femur
  {
    OFFSET -10.78128 -3.44521 -0.5502486
    CHANNELS 3 Zrotation Xrotation Yrotation
    JOINT right_femur_tibia
    {
      OFFSET -0.8047443 -44.0398 -0.1307829
      CHANNELS 3 Zrotation Xrotation Yrotation
      JOINT right_tibia_foot
      {
        OFFSET 3.006224 -47.83518 -5
        CHANNELS 3 Zrotation Xrotation Yrotation
        End Site
        {
          OFFSET 0 -5 15
        }
      }
    }
  }
  JOINT pelvis_left_femur
  {
    OFFSET 10.78128 -3.44521 -0.5502486
    CHANNELS 3 Zrotation Xrotation Yrotation
    JOINT left_femur_tibia
    {
      OFFSET 0.8047443 -44.0398 -0.1307829
      CHANNELS 3 Zrotation Xrotation Yrotation
      JOINT left_tibia_foot
      {
        OFFSET -4.370144 -48.10324 -4.275266
        CHANNELS 3 Zrotation Xrotation Yrotation
        End Site
        {
          OFFSET 0 -5 15
        }
      }
    }
  }
  JOINT pelvis_spine1
  {
    OFFSET 0 6.468898 -3.129235
    CHANNELS 3 Zrotation Xrotation Yrotation
    JOINT spine1
    {
      OFFSET 0 23.15396 4.99043
      CHANNELS 3 Zrotation Xrotation Yrotation
      JOINT spine2
      {
        OFFSET 0 20.79997 -5.064912
        CHANNELS 3 Zrotation Xrotation Yrotation
        JOINT neck
        {
          OFFSET 0 14.38658 9.616178
          CHANNELS 3 Zrotation Xrotation Yrotation
          End Site
          {
            OFFSET 0 20 0
          }
        }
      }
      JOINT right_manubrium
      {
        OFFSET -5.722621 16.35077 3.967754
        CHANNELS 3 Zrotation Xrotation Yrotation
        JOINT right_clavicle
        {
          OFFSET -13.16364 1.694482 -4.693211
          CHANNELS 3 Zrotation Xrotation Yrotation
          JOINT right_humerus
          {
            OFFSET -28.5034 -0.3100689 -2.792744
            CHANNELS 3 Zrotation Xrotation Yrotation
            JOINT right_radius
            {
              OFFSET -25.15693 0.02248979 -1.271978
              CHANNELS 3 Zrotation Xrotation Yrotation
              End Site
              {
                OFFSET -15 0 0
              }
            }
          }
        }
      }
      JOINT left_manubrium
      {
        OFFSET 5.722621 16.35077 3.967754
        CHANNELS 3 Zrotation Xrotation Yrotation
        JOINT left_clavicle
        {
          OFFSET 13.16364 1.694482 -4.693211
          CHANNELS 3 Zrotation Xrotation Yrotation
          JOINT left_humerus
          {
            OFFSET 29.39168 -1.063119 -2.237045
            CHANNELS 3 Zrotation Xrotation Yrotation
            JOINT left_radius
            {
              OFFSET 24.59957 -0.9528479 0.9047498
              CHANNELS 3 Zrotation Xrotation Yrotation
              End Site
              {
                OFFSET 15 -0 -0
              }
            }
          }
        }
      }
    }
  }
}
MOTION
Frames: 21
Frame Time: 0.0416666666667
-505.2158 110.8012 2707.422 -7.198031 -7.527139 -46.7509 -0.1694777 -5.354049 -3.832599 -0 40.68204 -0 -14.33901 10.09396 1.903445 -4.954479 5.531706 -13.13133 -0 11.75878 -0 -1.040712 -14.97933 19.24706 1.707237 -1.402094 6.385705 -2.494583 15.83666 -3.862355 3.072835 21.7225 2.527158 -0.635255 -17.13494 7.400832 -4.316414 -25.2315 11.00249 95.01929 16.86038 -13.63845 -0 0 18.56945 -22.56156 13.51613 14.96064 0.5418482 -20.6978 -9.825362 -89.93984 17.53474 28.84725 0 0 -20.60255 0.8451745 11.11765 17.08551
-508.3535 110.4936 2711.059 -6.803406 -7.16866 -46.28573 -0.2491576 -10.43285 -5.219992 -0 33.70059 -0 -14.05061 7.779895 1.611411 -4.95492 8.49969 -13.03071 -0 9.577589 -0 -1.105467 -16.77228 18.15124 1.855567 -1.517007 6.014357 -2.734391 15.86092 -4.060211 3.376504 21.85822 2.591083 -0.3704643 -17.14296 7.589756 -4.510779 -24.24277 10.81626 96.0991 17.48035 -15.00825 -0 0 16.46892 -22.97032 12.8996 14.58487 0.6729424 -21.60895 -9.97974 -88.49826 17.47826 26.30077 0 0 -22.2803 1.387603 11.62173 16.63126
-511.4957 109.6801 2714.63 -6.002034 -6.655455 -45.90412 -0.4786665 -14.86711 -6.709147 -0 25.74598 -0 -13.61514 5.715999 1.657923 -5.157842 10.97887 -12.91966 -0 7.95333 -0 -0.9651825 -18.41639 17.07936 2.05375 -1.722552 5.67296 -2.899018 15.76292 -4.298617 3.661911 21.86787 2.627987 -0.05416903 -17.2762 7.67464 -4.713669 -23.32243 10.60602 97.06021 18.0679 -16.33016 -0 0 14.57441 -23.40641 12.30702 14.23436 0.96858 -22.61102 -9.886276 -87.18841 17.21493 23.77398 0 0 -23.89573 1.963489 12.20669 16.02002
-514.667 108.4946 2718.185 -4.829336 -5.913514 -45.60954 -0.6348532 -18.81559 -7.905268 -0 18.22484 -0 -12.96128 4.214764 1.962211 -5.547065 12.87269 -12.79897 -0 7.093529 -0 -0.2226694 -19.66078 16.25053 2.244715 -1.963871 5.373324 -2.956567 15.52512 -4.544951 3.893975 21.81836 2.659274 0.2779874 -17.51446 7.673746 -4.903044 -22.48665 10.38564 97.83201 18.52074 -17.52409 -0 0 12.92963 -23.73352 11.72607 13.8555 1.410954 -23.60014 -9.571046 -86.14026 16.90967 21.40564 0 0 -25.33081 2.522415 12.77659 15.31706
-517.8559 107.1102 2721.739 -3.428042 -4.917629 -45.39499 -0.4521361 -22.44891 -8.363187 -0 12.35681 -0 -12.09757 3.26996 2.322733 -6.034977 14.12631 -12.68297 -0 7.089898 -0 1.460983 -20.29129 15.91525 2.369507 -2.18454 5.111181 -2.891287 15.16056 -4.780397 4.044911 21.78582 2.706421 0.5773139 -17.81752 7.62722 -5.062934 -21.74655 10.16562 98.3812 18.76595 -18.53847 -0 0 11.53583 -23.84775 11.15793 13.41147 1.938035 -24.47354 -9.118608 -85.39051 16.74021 19.29018 0 0 -26.51747 3.024021 13.24265 14.59516
-521.053 105.7033 2725.294 -2.038533 -3.718949 -45.23734 0.2929358 -25.82102 -7.778955 -0 8.886593 -0 -11.17034 2.755077 2.518574 -6.478106 14.7859 -12.58025 -0 7.988657 -0 4.07592 -20.21296 16.18306 2.392551 -2.346647 4.875089 -2.714117 14.7107 -4.998545 4.105915 21.82145 2.782745 0.8059287 -18.14064 7.577788 -5.186177 -21.10964 9.954653 98.71614 18.7917 -19.35485 -0 0 10.37161 -23.72508 10.61772 12.90492 2.46963 -25.16132 -8.633683 -84.8955 16.81161 17.47399 0 0 -27.43614 3.446401 13.55566 13.9138
-524.294 104.4206 2728.871 -0.9375308 -2.453192 -45.09002 1.645958 -28.79797 -6.273138 -0 7.715956 -0 -10.44948 2.630301 2.441486 -6.727315 15.05129 -12.43862 -0 9.842845 -0 6.98288 -19.57045 16.80688 2.313097 -2.438908 4.658144 -2.457435 14.23272 -5.199518 4.087267 21.93542 2.889944 0.9521011 -18.4513 7.551556 -5.273519 -20.58186 9.763618 98.87693 18.64229 -19.9831 -0 0 9.411231 -23.41817 10.12734 12.37267 2.939901 -25.64466 -8.199604 -84.58204 17.11969 15.97211 0 0 -28.10109 3.788483 13.71658 13.30444
-527.6883 103.3597 2732.537 -0.3319194 -1.317421 -44.89336 3.36666 -31.08265 -4.485672 -0 7.865955 -0 -10.183 3.043037 2.142672 -6.695473 15.24722 -12.08477 -0 12.7851 -0 9.034325 -18.74851 17.1785 2.157753 -2.471992 4.463122 -2.16003 13.78456 -5.385603 4.008958 22.10482 3.020883 1.027823 -18.73676 7.552488 -5.331405 -20.16996 9.606934 98.91856 18.3866 -20.45174 -0 0 8.632226 -23.01689 9.707724 11.86368 3.313497 -25.95096 -7.861365 -84.38973 17.57664 14.78721 0 0 -28.5488 4.06666 13.76219 12.76882
-531.4092 102.5875 2736.417 -0.304372 -0.5187852 -44.61164 5.040992 -32.24492 -3.160574 -0 8.200887 -0 -10.38532 4.162615 1.693226 -6.376043 15.65021 -11.26385 -0 17.13245 -0 9.180429 -18.03483 16.67242 1.963416 -2.466935 4.300244 -1.854807 13.4155 -5.559213 3.890665 22.29356 3.164914 1.055321 -19.00026 7.570001 -5.369632 -19.88381 9.500387 98.89507 18.08712 -20.79438 -0 0 8.018697 -22.609 9.374562 11.42079 3.579934 -26.13087 -7.634568 -84.28617 18.06577 13.92511 0 0 -28.82326 4.306056 13.74056 12.29049
-535.63 102.2019 2740.639 -0.8599891 -0.2011363 -44.28646 6.399343 -31.68194 -2.45729 -0 8.531775 -0 -10.77316 5.761152 1.008739 -5.790309 16.18293 -9.851147 -0 23.4269 -0 7.096407 -17.10969 15.12798 1.759182 -2.440635 4.182884 -1.562899 13.1645 -5.721813 3.744729 22.47261 3.312836 1.052035 -19.25261 7.591229 -5.399014 -19.74165 9.459402 98.84537 17.78011 -21.02928 -0 0 7.570701 -22.25797 9.138086 11.07433 3.733957 -26.22522 -7.527123 -84.27047 18.49631 13.41742 0 0 -28.93957 4.527123 13.68792 11.8545
-540.3681 102.393 2745.225 -1.894777 -0.2777172 -44.08558 7.487217 -28.85015 -1.658109 -0 9.986552 -0 -10.96346 6.721398 -0.02884246 -4.940805 15.97681 -8.188649 -0 32.08951 -0 3.63718 -14.96261 13.22109 1.55229 -2.390583 4.126673 -1.293204 13.06521 -5.870592 3.572373 22.63477 3.459236 1.01937 -19.50459 7.610446 -5.428363 -19.78106 9.500969 98.77787 17.46816 -21.1283 -0 0 7.326604 -21.99651 9.006541 10.84646 3.752566 -26.22807 -7.559546 -84.38511 18.84385 13.3628 0 0 -28.81766 4.729964 13.61338 11.4686
-545.2917 103.3665 2749.964 -2.866378 -0.2183937 -44.22624 8.323847 -24.12232 0.09533859 -0 13.29358 -0 -10.86931 5.136461 -1.048382 -3.944087 13.22416 -7.198528 -0 42.32325 -0 0.792806 -10.95904 12.09289 1.32673 -2.286096 4.155223 -1.049309 13.15027 -5.987139 3.366922 22.79663 3.595772 0.938845 -19.7576 7.628459 -5.459525 -20.07039 9.646174 98.65334 17.13507 -20.9798 -0 0 7.398488 -21.82667 8.9936 10.7618 3.586404 -26.05911 -7.762443 -84.73961 19.15411 13.97331 0 0 -28.2165 4.881642 13.50137 11.17658
-549.9255 105.015 2754.545 -2.966308 0.1841343 -44.71054 8.415478 -18.83637 2.119562 -0 15.8389 -0 -10.62345 0.8554276 -1.376431 -3.309289 7.283535 -7.276906 -0 51.64071 -0 -0.4069196 -6.686904 11.79714 1.076606 -2.098464 4.312804 -0.8426004 13.44817 -6.028525 3.128474 22.96045 3.687745 0.7857763 -19.99513 7.62706 -5.485355 -20.70682 9.916836 98.3944 16.7992 -20.40979 -0 0 7.984995 -21.72954 9.133006 10.85853 3.199626 -25.61127 -8.122688 -85.4972 19.4303 15.54272 0 0 -26.83353 4.936923 13.35046 11.0217
-554.2512 106.8167 2758.885 -2.781879 -0.4049107 -45.39674 7.485241 -13.30372 2.953229 -0 15.27218 -0 -9.946599 -2.889727 -1.520907 -3.206631 0.9343877 -7.358863 -0 58.17997 -0 -1.112005 -4.49638 12.0796 0.8663048 -1.890043 4.658003 -0.685096 13.98119 -5.98081 2.873205 23.03225 3.658645 0.5579081 -20.20124 7.531116 -5.50645 -21.78602 10.32499 97.98018 16.55775 -19.37828 -0 0 9.263649 -21.70455 9.501721 11.17998 2.639721 -24.94181 -8.533279 -86.70249 19.40608 18.20316 0 0 -24.74802 4.931421 13.23289 10.91806
-558.4552 108.3515 2762.985 -3.324028 -2.380938 -46.17149 6.194069 -7.21243 2.7921 -0 13.38293 -0 -9.116332 -4.802868 -2.019731 -2.982113 -4.287947 -6.902525 -0 61.05202 -0 -1.751383 -4.133194 13.33794 0.790523 -1.795434 5.199438 -0.55708 14.73196 -5.929189 2.617563 22.86366 3.432765 0.2604432 -20.36367 7.255654 -5.533105 -23.325 10.84428 97.48219 16.504 -18.08659 -0 0 11.25055 -21.75971 10.20393 11.71978 2.000188 -24.28205 -8.87097 -88.10748 18.72185 21.68193 0 0 -22.51895 4.968613 13.24543 10.67705
-562.5597 109.4513 2766.823 -4.325786 -4.466757 -46.96126 5.268879 -1.141448 2.235391 -0 11.52134 -0 -8.845377 -6.048247 -2.439307 -2.209473 -9.023466 -6.2003 -0 59.30422 -0 -1.995672 -4.462217 15.12 0.8741799 -1.873434 5.870866 -0.4242061 15.59088 -5.968999 2.371154 22.39976 2.985682 -0.1199605 -20.42395 6.787487 -5.541705 -25.21113 11.39274 96.91182 16.62853 -16.71416 -0 0 13.87369 -21.84874 11.30657 12.41584 1.348691 -23.74454 -9.059771 -89.38867 17.382 25.50232 0 0 -20.57134 5.028681 13.39215 10.28163
-566.5445 109.9946 2770.455 -5.399451 -5.803409 -47.75526 5.091583 4.22459 1.553278 -0 10.05742 -0 -9.26231 -7.400188 -2.594546 -0.8165637 -13.26041 -5.275193 -0 52.81691 -0 -1.730244 -4.863355 16.81768 1.086287 -2.09959 6.576831 -0.2720486 16.392 -6.116743 2.140076 21.68445 2.35892 -0.5756737 -20.31727 6.177153 -5.480388 -27.24235 11.8711 96.19907 16.84642 -15.31327 -0 0 17.00756 -21.91751 12.79477 13.21252 0.7542889 -23.29668 -9.05132 -90.38193 15.68221 29.24234 0 0 -19.03075 4.985911 13.61233 9.89452
-570.397 109.9445 2774.013 -6.248325 -6.085941 -48.53749 5.636713 8.50613 0.9888268 -0 9.211583 -0 -9.995286 -9.24156 -2.560843 0.9948602 -16.73668 -4.114722 -0 42.5278 -0 -1.011445 -4.954013 17.92817 1.374962 -2.411638 7.214351 -0.1171017 16.96823 -6.309385 1.933214 20.82837 1.665846 -1.047451 -20.04617 5.525881 -5.316694 -29.15647 12.1954 95.29492 17.04126 -13.90489 -0 0 20.38066 -21.96376 14.51454 14.07245 0.3059754 -22.87106 -8.832258 -91.09105 14.00794 32.54955 0 0 -17.87735 4.729644 13.82713 9.722893
-574.1333 109.4001 2777.674 -6.60674 -5.455426 -49.25796 6.366331 11.64101 0.781693 -0 9.22857 -0 -10.41179 -11.59056 -2.391422 2.702089 -19.28975 -3.007363 -0 30.65693 -0 -0.153568 -4.555363 18.17612 1.679011 -2.729826 7.701007 0.00258743 17.21429 -6.442248 1.76421 19.98263 1.059912 -1.448391 -19.6952 4.961552 -5.07011 -30.7016 12.32483 94.23815 17.10293 -12.53661 -0 0 23.59693 -22.02943 16.17653 14.95448 0.07289879 -22.4091 -8.446394 -91.63404 12.69864 35.18133 0 0 -17.00803 4.226445 13.94573 9.919052
-577.8384 108.5581 2781.602 -6.494713 -4.509655 -49.90253 6.538893 13.99532 0.8731673 -0 10.28791 -0 -10.13598 -13.86309 -2.052304 3.648031 -20.8049 -2.519163 -0 20.27306 -0 0.2879396 -3.873825 17.89012 1.942481 -2.9814 8.007108 0.05220698 17.13704 -6.433256 1.646515 19.28629 0.6613589 -1.714484 -19.37123 4.583349 -4.799466 -31.73101 12.27939 93.15384 16.97982 -11.29305 -0 0 26.28013 -22.14796 17.48391 15.79347 0.05787138 -21.88697 -7.98885 -92.13992 11.93016 37.05499 0 0 -16.30992 3.531192 13.89262 10.50878
-581.6485 107.6215 2785.874 -6.254478 -3.954078 -50.52181 5.814767 16.16572 0.8051239 -0 12.26484 -0 -9.527712 -15.08925 -1.510537 3.435315 -21.28294 -3.161971 -0 13.62666 -0 -0.1472378 -3.476458 17.83756 2.132951 -3.125037 8.158544 0.01848546 16.84525 -6.265548 1.585183 18.81369 0.5015802 -1.834927 -19.12516 4.419199 -4.555164 -32.24427 12.12786 92.18621 16.70425 -10.26225 -0 0 28.22371 -22.30746 18.29407 16.51441 0.1939827 -21.32566 -7.570257 -92.65894 11.68094 38.24039 0 0 -15.74063 2.749886 13.64812 11.39499
